<?xml version="1.0" encoding="UTF-8" standalone="no"?>
<svg width="17px" height="18px" viewBox="0 0 17 18" version="1.1" xmlns="http://www.w3.org/2000/svg" xmlns:xlink="http://www.w3.org/1999/xlink">
    <!-- Generator: Sketch 44 (41411) - http://www.bohemiancoding.com/sketch -->
    <title>check</title>
    <desc>Created with Sketch.</desc>
    <defs></defs>
    <g id="Symbols" stroke="none" stroke-width="1" fill="none" fill-rule="evenodd">
        <g id="check" fill-rule="nonzero" fill="#F52A3B">
            <g id="Group-6" transform="translate(0.000000, 1.000000)">
                <path d="M8.20344308,15.0631616 C11.6295101,15.0631616 14.4068862,12.2857855 14.4068862,8.85971853 C14.4068862,5.43365152 11.6295101,2.65627545 8.20344308,2.65627545 C4.77737607,2.65627545 2,5.43365152 2,8.85971853 C2,12.2857855 4.77737607,15.0631616 8.20344308,15.0631616 Z M8.20344308,17.0631616 C3.67280657,17.0631616 0,13.390355 0,8.85971853 C0,4.32908202 3.67280657,0.656275447 8.20344308,0.656275447 C12.7340796,0.656275447 16.4068862,4.32908202 16.4068862,8.85971853 C16.4068862,13.390355 12.7340796,17.0631616 8.20344308,17.0631616 Z" id="Oval-2"></path>
                <path d="M5.13249499,8.01713575 C4.66714937,7.71969349 4.04878761,7.85580605 3.75134535,8.32115167 C3.45390309,8.78649729 3.59001565,9.40485904 4.05536127,9.70230131 L7.83251012,12.1166008 C8.29429295,12.4117658 8.90761938,12.2802427 9.20777249,11.8216864 L16.5873062,0.547668344 C16.8897751,0.0855741701 16.7603732,-0.534226641 16.2982791,-0.836695515 C15.8361849,-1.13916439 15.2163841,-1.00976252 14.9139152,-0.547668344 L8.07614522,9.89867488 L5.13249499,8.01713575 Z" id="Path-3"></path>
            </g>
        </g>
    </g>
</svg>