<?xml version="1.0" encoding="UTF-8" standalone="no"?>
<svg width="26px" height="32px" viewBox="0 0 26 32" version="1.1" xmlns="http://www.w3.org/2000/svg" xmlns:xlink="http://www.w3.org/1999/xlink">
    <!-- Generator: Sketch 44 (41411) - http://www.bohemiancoding.com/sketch -->
    <title>download</title>
    <desc>Created with Sketch.</desc>
    <defs></defs>
    <g id="Symbols" stroke="none" stroke-width="1" fill="none" fill-rule="evenodd">
        <g id="download" fill-rule="nonzero" fill="#F52A3B">
            <g id="Group-3">
                <path d="M22.5024943,28.6556444 L3.5,28.6556444 L3.5,11.5 L6.52268051,11.5 L6.52268051,11.5 C7.07496526,11.5 7.52268051,11.0522847 7.52268051,10.5 L7.52268051,9.5 L7.52268051,9.5 C7.52268051,8.94771525 7.07496526,8.5 6.52268051,8.5 L1.5,8.5 L1.5,8.5 C0.94771525,8.5 0.5,8.94771525 0.5,9.5 L0.5,30.6556444 L0.5,30.6556444 C0.5,31.2079291 0.94771525,31.6556444 1.5,31.6556444 L24.5028954,31.6556444 L24.5028954,31.6557781 C25.0551802,31.6557781 25.5028954,31.2080628 25.5028954,30.6557781 C25.5028954,30.6557335 25.5028954,30.6556889 25.5028954,30.6556444 L25.4999332,9.49999999 L25.4997995,9.50000001 C25.4997256,8.94776748 25.052032,8.50013371 24.4997995,8.50013371 L20,8.5 L20,8.5 C19.4477153,8.5 19,8.94771525 19,9.5 L19,10.5 L19,10.5 C19,11.0522847 19.4477153,11.5 20,11.5 L22.5002005,11.5 L22.5024943,28.6556444 Z" id="Path-3"></path>
                <path d="M15,20 L15,1.5 L15,1.5 C15,0.94771525 14.5522847,0.5 14,0.5 L13,0.5 L13,0.5 C12.4477153,0.5 12,0.94771525 12,1.5 L12,20 L15,20 Z" id="Path-4"></path>
                <path d="M14.305228,20.9393398 L12.2077103,20.9160597 L13.2678537,19.9019655 L14.305228,20.9393398 Z M18.6543808,16.1332517 L19.3456192,16.8558785 L19.3456192,16.8558785 C19.7273795,17.2549743 19.7133264,17.8879833 19.3142306,18.2697437 L13.9280441,23.4219717 L13.9280441,23.4219717 C13.5351981,23.7977538 12.9141078,23.7908604 12.529699,23.4064516 L7.3855795,18.2623321 L7.3855795,18.2623321 C6.9950552,17.8718078 6.9950552,17.2386428 7.3855795,16.8481185 L8.09268628,16.1410117 L8.09268628,16.1410117 C8.48321057,15.7504874 9.11637555,15.7504874 9.50689984,16.1410117 L13.2678537,19.9019655 L17.2405157,16.1018631 L17.2405157,16.1018631 C17.6396115,15.7201027 18.2726205,15.7341559 18.6543808,16.1332517 Z" id="Path-5"></path>
            </g>
        </g>
    </g>
</svg>