<?xml version="1.0" encoding="UTF-8"?>
<svg width="38px" height="38px" viewBox="0 0 38 38" version="1.1" xmlns="http://www.w3.org/2000/svg" xmlns:xlink="http://www.w3.org/1999/xlink">
    <!-- Generator: Sketch 43.1 (39012) - http://www.bohemiancoding.com/sketch -->
    <title>instagram (2)</title>
    <desc>Created with Sketch.</desc>
    <defs></defs>
    <g id="Page-1" stroke="none" stroke-width="1" fill="none" fill-rule="evenodd">
        <g id="instagram-(2)" fill-rule="nonzero" fill="#001A52">
            <path d="M26.3853264,17.3857591 L28.7685182,17.3857591 L28.7685182,27.6354098 C28.7685182,28.2611562 28.2611562,28.7685182 27.6354098,28.7685182 L10.3645902,28.7685182 C9.73884377,28.7685182 9.23148182,28.2611562 9.23148182,27.6354098 L9.23148182,17.3857591 L11.6146736,17.3857591 C11.5014567,17.9061183 11.4400722,18.4457384 11.4400722,18.9999217 C11.4400722,23.175166 14.8246774,26.5597712 18.9999217,26.5597712 C23.175166,26.5597712 26.5597712,23.175166 26.5597712,18.9999217 C26.5597712,18.4457384 26.4985433,17.9059617 26.3853264,17.3857591 Z M18.9999217,24.0921757 C21.8121788,24.0921757 24.0920191,21.8123354 24.0920191,19.0000783 C24.0920191,16.1878212 21.8121788,13.9079809 18.9999217,13.9079809 C16.1876646,13.9079809 13.9078243,16.1878212 13.9078243,19.0000783 C13.9078243,21.8123354 16.1876646,24.0921757 18.9999217,24.0921757 Z M25.1007924,13.7703355 L27.0401991,13.7703355 C27.608789,13.7703355 28.0697994,13.3093251 28.0697994,12.7407352 L28.0697994,10.8014852 C28.0697994,10.2328953 27.6089456,9.77204152 27.0401991,9.77204152 L25.1007924,9.77204152 C24.5322026,9.77204152 24.0713488,10.2328953 24.0713488,10.8014852 L24.0713488,12.7408918 C24.0713488,13.3094817 24.5322026,13.7703355 25.1007924,13.7703355 Z M38,0 L38,38 L0,38 L0,0 L38,0 Z M31.1030095,9.94977479 C31.1030095,8.26389249 29.7362641,6.89714712 28.0503818,6.89714712 L9.94977479,6.89714712 C8.26389249,6.89714712 6.89714712,8.26389249 6.89714712,9.94977479 L6.89714712,28.0503818 C6.89714712,29.7362641 8.26389249,31.1030095 9.94977479,31.1030095 L28.0503818,31.1030095 C29.7362641,31.1030095 31.1030095,29.7362641 31.1030095,28.0503818 L31.1030095,9.94977479 L31.1030095,9.94977479 Z" id="Shape"></path>
        </g>
    </g>
</svg>