<svg xmlns="http://www.w3.org/2000/svg" viewBox="0 0 600 613"><defs><style>.cls-1{fill:#e4e9eb;}.cls-2{fill:#001a52;}.cls-3{fill:#f52a3b;}.cls-4{fill:#fff;}</style></defs><title>talk</title><g id="Layer_3" data-name="Layer 3"><path class="cls-1" d="M264.22 307.6v59.61a9.81 9.81 0 1 1-19.61 0V307.6a9.81 9.81 0 1 1 19.61 0zM332.7 222.78a10.09 10.09 0 0 1-1.26 14l-50.27 42.58a9.69 9.69 0 0 1-13.8-1.29 10.1 10.1 0 0 1 1.26-14.06l50.27-42.57a9.66 9.66 0 0 1 13.8 1.34z"/><path class="cls-1" d="M299.87 17.58c-159.15 0-288.16 129-288.16 288.16s129 288.15 288.16 288.15S588 464.88 588 305.74 459 17.58 299.87 17.58zm-45 418.32a146.4 146.4 0 0 1-72.59-19.39 2.87 2.87 0 0 0-2.22-.26l-64.38 18.66a4.37 4.37 0 0 1-6-2.08 4.57 4.57 0 0 1 .37-4.52l35.15-37.12a3 3 0 0 0 0-4.12c-23.54-25.53-37.87-58.48-37.87-92.33 0-78 66-141.17 147.48-141.17a153.09 153.09 0 0 1 48.85 7.93c57.44 19.3 98.62 71.66 98.62 133.24 0 56.77-35 105.71-85.49 128.13a152.56 152.56 0 0 1-61.88 13.03z"/><path class="cls-2" d="M264.22 307.6v59.61a9.81 9.81 0 1 1-19.61 0V307.6a9.81 9.81 0 1 1 19.61 0zM331.44 236.83l-50.27 42.58a9.69 9.69 0 0 1-13.8-1.29 10.1 10.1 0 0 1 1.26-14.06l50.27-42.57a9.66 9.66 0 0 1 13.8 1.29 10.09 10.09 0 0 1-1.26 14.05z"/><path class="cls-2" d="M493.3 418.79a4.26 4.26 0 0 1 .8 2.48 4.19 4.19 0 0 1-.43 1.86 4.44 4.44 0 0 1-5.94 2l-64.26-17.91a2.94 2.94 0 0 0-2.21.25 150.61 150.61 0 0 1-72.44 18.61 159.42 159.42 0 0 1-31.93-3.2c50.48-22.42 85.49-71.36 85.49-128.13 0-61.58-41.18-113.94-98.62-133.24a158.73 158.73 0 0 1 45.06-6.51C430.1 155 496 215.71 496 290.55c0 32.5-14.3 64.14-37.79 88.65a2.82 2.82 0 0 0 0 3.95z"/><path class="cls-3" d="M303.76 161.5a153.09 153.09 0 0 0-48.85-7.93c-81.45 0-147.48 63.2-147.48 141.17 0 33.85 14.33 66.8 37.87 92.33a3 3 0 0 1 0 4.12l-35.15 37.12a4.57 4.57 0 0 0-.37 4.52 4.37 4.37 0 0 0 6 2.08l64.38-18.66a2.87 2.87 0 0 1 2.22.26 146.4 146.4 0 0 0 72.59 19.39 152.56 152.56 0 0 0 62-13c50.48-22.42 85.49-71.36 85.49-128.13-.08-61.61-41.26-113.97-98.7-133.27zm-68.82 120.21a9.74 9.74 0 0 1-6.27-2.3l-23.22-19.66-27.08-22.92a10.1 10.1 0 0 1-1.27-14 9.7 9.7 0 0 1 13.82-1.29l21.45 18.16 28.85 24.41a10.11 10.11 0 0 1 1.27 14.06 9.73 9.73 0 0 1-7.55 3.54zm29.28 85.5a9.81 9.81 0 1 1-19.61 0V307.6a9.81 9.81 0 1 1 19.61 0zm67.22-130.38l-50.27 42.58a9.69 9.69 0 0 1-13.8-1.29 10.1 10.1 0 0 1 1.26-14.06l50.27-42.57a9.66 9.66 0 0 1 13.8 1.29 10.09 10.09 0 0 1-1.26 14.05z"/><path class="cls-3" d="M264.22 307.6v59.61a9.81 9.81 0 1 1-19.61 0V307.6a9.81 9.81 0 1 1 19.61 0zM331.44 236.83l-50.27 42.58a9.69 9.69 0 0 1-13.8-1.29 10.1 10.1 0 0 1 1.26-14.06l50.27-42.57a9.66 9.66 0 0 1 13.8 1.29 10.09 10.09 0 0 1-1.26 14.05z"/><path class="cls-4" d="M264.22 307.6v59.61a9.81 9.81 0 1 1-19.61 0V307.6a9.81 9.81 0 1 1 19.61 0zM331.44 236.83l-50.27 42.58a9.69 9.69 0 0 1-13.8-1.29 10.1 10.1 0 0 1 1.26-14.06l50.27-42.57a9.66 9.66 0 0 1 13.8 1.29 10.09 10.09 0 0 1-1.26 14.05zM242.49 278.12a9.72 9.72 0 0 1-13.82 1.29l-23.22-19.66-27.08-22.92a10.1 10.1 0 0 1-1.27-14 9.7 9.7 0 0 1 13.82-1.29l21.45 18.16 28.85 24.41a10.11 10.11 0 0 1 1.27 14.01z"/></g></svg>